<svg width="1022" height="34" viewBox="0 0 1022 34" fill="none" xmlns="http://www.w3.org/2000/svg">
<g clip-path="url(#clip0_2_168)">
<path d="M439 3.00122L442.592 14.0569H454.217L444.812 20.8898L448.405 31.9455L439 25.1127L429.595 31.9455L433.188 20.8898L423.783 14.0569H435.408L439 3.00122Z" fill="#1C1C33"/>
</g>
<g clip-path="url(#clip1_2_168)">
<path d="M511 3.00122L514.592 14.0569H526.217L516.812 20.8898L520.405 31.9455L511 25.1127L501.595 31.9455L505.188 20.8898L495.783 14.0569H507.408L511 3.00122Z" fill="#1C1C33"/>
</g>
<g clip-path="url(#clip2_2_168)">
<path d="M583 3.00122L586.592 14.0569H598.217L588.812 20.8898L592.405 31.9455L583 25.1127L573.595 31.9455L577.188 20.8898L567.783 14.0569H579.408L583 3.00122Z" fill="#1C1C33"/>
</g>
<g clip-path="url(#clip3_2_168)">
<path d="M475 3.00122L478.592 14.0569H490.217L480.812 20.8898L484.405 31.9455L475 25.1127L465.595 31.9455L469.188 20.8898L459.783 14.0569H471.408L475 3.00122Z" fill="#1C1C33"/>
</g>
<g clip-path="url(#clip4_2_168)">
<path d="M547 3.00122L550.592 14.0569H562.217L552.812 20.8898L556.405 31.9455L547 25.1127L537.595 31.9455L541.188 20.8898L531.783 14.0569H543.408L547 3.00122Z" fill="#1C1C33"/>
</g>
<defs>
<clipPath id="clip0_2_168">
<rect width="32" height="29" fill="white" transform="translate(423 3)"/>
</clipPath>
<clipPath id="clip1_2_168">
<rect width="32" height="29" fill="white" transform="translate(495 3)"/>
</clipPath>
<clipPath id="clip2_2_168">
<rect width="32" height="29" fill="white" transform="translate(567 3)"/>
</clipPath>
<clipPath id="clip3_2_168">
<rect width="32" height="29" fill="white" transform="translate(459 3)"/>
</clipPath>
<clipPath id="clip4_2_168">
<rect width="32" height="29" fill="white" transform="translate(531 3)"/>
</clipPath>
</defs>
</svg>
